<svg width="69" height="77" viewBox="0 0 69 77" fill="none" xmlns="http://www.w3.org/2000/svg">
<path fill-rule="evenodd" clip-rule="evenodd" d="M36.3818 13.4911C36.3818 11.7926 35.9863 10.1174 35.2264 8.59827C34.5696 7.28511 34.184 5.85324 34.0924 4.38794L33.8727 0.875L33.6532 4.38781C33.5614 5.85313 33.1758 7.28505 32.5191 8.59822C31.7593 10.1174 31.3636 11.7926 31.3636 13.4911V63.5089C31.3636 65.2073 31.7593 66.8826 32.5191 68.4018C33.1758 69.715 33.5614 71.1469 33.6532 72.6122L33.8727 76.125L34.0924 72.6121C34.184 71.1467 34.5696 69.715 35.2264 68.4017C35.9863 66.8826 36.3818 65.2075 36.3818 63.5089V13.4911ZM22.6809 13.6149C23.4409 15.1341 23.8364 16.8093 23.8364 18.5078V58.4922C23.8364 60.1908 23.4409 61.8659 22.6809 63.3852C22.0242 64.6983 21.6386 66.1302 21.5468 67.5954L21.3273 71.1083L21.1077 67.5954C21.016 66.1302 20.6304 64.6983 19.9736 63.3852C19.2137 61.8659 18.8182 60.1908 18.8182 58.4922V18.5078C18.8182 16.8093 19.2137 15.1341 19.9736 13.6149C20.6304 12.3018 21.016 10.8699 21.1077 9.40456L21.3273 5.89168L21.5468 9.40456C21.6386 10.8699 22.0242 12.3018 22.6809 13.6149ZM17.5636 23.5245C17.5636 21.8259 17.1681 20.1508 16.4082 18.6316C15.7514 17.3184 15.3658 15.8865 15.2742 14.4212L15.0545 10.9083L14.8349 14.4212C14.7433 15.8865 14.3576 17.3184 13.7008 18.6316C12.941 20.1508 12.5455 21.8259 12.5455 23.5245V53.4755C12.5455 55.174 12.941 56.8492 13.7008 58.3684C14.3576 59.6816 14.7433 61.1134 14.8349 62.5787L15.0545 66.0917L15.2742 62.5787C15.3658 61.1134 15.7514 59.6816 16.4082 58.3684C17.1681 56.8492 17.5636 55.174 17.5636 53.4755V23.5245ZM10.1355 28.6648C10.8953 30.1841 11.2909 31.8592 11.2909 33.5578V43.4422C11.2909 45.1407 10.8953 46.8159 10.1355 48.335C9.47873 49.6483 9.09305 51.0801 9.00144 52.5454L8.78182 56.0583L8.56219 52.5454C8.47058 51.0801 8.0849 49.6483 7.42812 48.335C6.6683 46.8159 6.27273 45.1407 6.27273 43.4422V33.5578C6.27273 31.8592 6.6683 30.1841 7.42812 28.6648C8.0849 27.3517 8.47058 25.9198 8.56219 24.4546L8.78182 20.9417L9.00144 24.4546C9.09305 25.9198 9.47873 27.3517 10.1355 28.6648ZM5.01793 38.5L5.01818 38.5745V38.4255L5.01793 38.5ZM0 38.5745L0.000253139 38.5C0.0116347 40.1731 0.406672 41.8215 1.15539 43.3184C1.81218 44.6316 2.19785 46.0634 2.28947 47.5287L2.50909 51.0417L2.72871 47.5287C2.82033 46.0634 3.20601 44.6316 3.86279 43.3184C4.61151 41.8215 5.00655 40.1731 5.01793 38.5C5.00655 36.8269 4.61151 35.1785 3.86279 33.6816C3.20601 32.3684 2.82033 30.9366 2.72871 29.4713L2.50909 25.9583L2.28947 29.4713C2.19785 30.9366 1.81218 32.3684 1.15539 33.6816C0.406672 35.1785 0.0116348 36.8269 0.000253139 38.5L0 38.4255V38.5745ZM28.9537 8.59825C29.7136 10.1174 30.1091 11.7926 30.1091 13.4911V63.5089C30.1091 65.2075 29.7136 66.8826 28.9537 68.4017C28.2969 69.715 27.9113 71.1467 27.8195 72.6121L27.6 76.125L27.3805 72.6121C27.2887 71.1467 26.9031 69.715 26.2463 68.4017C25.4864 66.8826 25.0909 65.2075 25.0909 63.5089V13.4911C25.0909 11.7926 25.4864 10.1174 26.2463 8.59825C26.9031 7.28508 27.2887 5.85318 27.3805 4.38787L27.6 0.875L27.8195 4.38787C27.9113 5.85318 28.2969 7.28508 28.9537 8.59825ZM41.4991 8.59825C42.259 10.1174 42.6545 11.7926 42.6545 13.4911V63.5089C42.6545 65.2075 42.259 66.8826 41.4991 68.4017C40.8424 69.715 40.4567 71.1467 40.365 72.6121L40.1455 76.125L39.9259 72.6121C39.8342 71.1467 39.4486 69.715 38.7918 68.4017C38.0319 66.8826 37.6364 65.2075 37.6364 63.5089V13.4911C37.6364 11.7926 38.0319 10.1174 38.7918 8.59825C39.4486 7.28508 39.8342 5.85318 39.9259 4.38787L40.1455 0.875L40.365 4.38787C40.4567 5.85318 40.8424 7.28508 41.4991 8.59825ZM48.9273 18.5078C48.9273 16.8093 48.5318 15.1341 47.7718 13.6149C47.1151 12.3018 46.7295 10.8699 46.6377 9.40456L46.4182 5.89168L46.1986 9.40456C46.1069 10.8699 45.7213 12.3018 45.0645 13.6149C44.3046 15.1341 43.9091 16.8093 43.9091 18.5078V58.4922C43.9091 60.1908 44.3046 61.8659 45.0645 63.3852C45.7213 64.6983 46.1069 66.1302 46.1986 67.5954L46.4182 71.1083L46.6377 67.5954C46.7295 66.1302 47.1151 64.6983 47.7718 63.3852C48.5318 61.8659 48.9273 60.1908 48.9273 58.4922V18.5078ZM54.0446 18.6316C54.8045 20.1508 55.2 21.8259 55.2 23.5245V53.4755C55.2 55.174 54.8045 56.8492 54.0446 58.3684C53.3878 59.6816 53.0022 61.1134 52.9105 62.5787L52.6909 66.0917L52.4714 62.5787C52.3796 61.1134 51.994 59.6816 51.3373 58.3684C50.5775 56.8492 50.1818 55.174 50.1818 53.4755V23.5245C50.1818 21.8259 50.5775 20.1508 51.3373 18.6316C51.994 17.3184 52.3796 15.8865 52.4714 14.4212L52.6909 10.9083L52.9105 14.4212C53.0022 15.8865 53.3878 17.3184 54.0446 18.6316ZM61.4727 33.5578C61.4727 31.8592 61.0772 30.1841 60.3173 28.6648C59.6605 27.3517 59.2749 25.9198 59.1832 24.4546L58.9636 20.9417L58.7441 24.4546C58.6523 25.9198 58.2667 27.3517 57.61 28.6648C56.8502 30.1841 56.4545 31.8592 56.4545 33.5578V43.4422C56.4545 45.1407 56.8502 46.8159 57.61 48.335C58.2667 49.6483 58.6523 51.0801 58.7441 52.5454L58.9636 56.0583L59.1832 52.5454C59.2749 51.0801 59.6605 49.6483 60.3173 48.335C61.0772 46.8159 61.4727 45.1407 61.4727 43.4422V33.5578ZM67.7451 38.5C67.7453 38.5248 67.7455 38.5495 67.7455 38.5745V38.4255C67.7455 38.4505 67.7453 38.4752 67.7451 38.5ZM62.7276 38.5C62.7389 40.1731 63.1339 41.8215 63.8827 43.3184C64.5395 44.6316 64.9251 46.0634 65.0168 47.5287L65.2364 51.0417L65.4559 47.5287C65.5476 46.0634 65.9333 44.6316 66.59 43.3184C67.3388 41.8215 67.7338 40.1731 67.7451 38.5C67.7338 36.8269 67.3388 35.1785 66.59 33.6816C65.9333 32.3684 65.5476 30.9366 65.4559 29.4713L65.2364 25.9583L65.0168 29.4713C64.9251 30.9366 64.5395 32.3684 63.8827 33.6816C63.1339 35.1785 62.7389 36.8269 62.7276 38.5ZM62.7276 38.5C62.7274 38.4752 62.7273 38.4505 62.7273 38.4255V38.5745C62.7273 38.5495 62.7274 38.5248 62.7276 38.5Z" fill="white"/>
</svg>
