<?xml version="1.0" encoding="UTF-8" standalone="no"?><!DOCTYPE svg PUBLIC "-//W3C//DTD SVG 1.1//EN" "http://www.w3.org/Graphics/SVG/1.1/DTD/svg11.dtd"><svg width="100%" height="100%" viewBox="0 0 737 599" version="1.1" xmlns="http://www.w3.org/2000/svg" xmlns:xlink="http://www.w3.org/1999/xlink" xml:space="preserve" xmlns:serif="http://www.serif.com/" style="fill-rule:evenodd;clip-rule:evenodd;stroke-linejoin:round;stroke-miterlimit:2;"><g><g><path d="M275.944,340.069c2.68,-47.798 26.048,-90.032 61.454,-119.875c34.648,-29.336 81.181,-47.292 132.267,-47.292c50.833,0 97.367,17.931 132.014,47.292c35.406,29.843 58.673,72.077 61.455,119.875c2.68,49.063 -17.071,94.838 -51.592,128.726c-35.406,34.395 -85.48,56.144 -141.877,56.144c-56.397,-0 -106.724,-21.598 -141.877,-56.144c-34.647,-33.888 -54.373,-79.41 -51.591,-128.473l-0.253,-0.253Z" style="fill:#fff;fill-rule:nonzero;"/></g><g><path d="M381.904,334.215c1.378,-24.563 13.386,-46.267 31.581,-61.602c17.805,-15.076 41.718,-24.303 67.97,-24.303c26.123,-0 50.036,9.214 67.841,24.303c18.195,15.335 30.151,37.039 31.581,61.602c1.377,25.213 -8.773,48.736 -26.513,66.151c-18.194,17.675 -43.927,28.851 -72.909,28.851c-28.981,0 -54.844,-11.098 -72.909,-28.851c-17.804,-17.415 -27.942,-40.808 -26.512,-66.021l-0.13,-0.13Z" style="fill:#265787;fill-rule:nonzero;"/><path d="M225.949,386.2c0.169,9.617 3.236,28.332 7.837,42.887c9.669,30.932 26.122,59.523 48.866,84.606c23.393,25.863 52.245,46.657 85.515,61.472c34.96,15.466 72.909,23.394 112.288,23.394c39.378,-0.052 77.327,-8.11 112.287,-23.784c33.271,-14.945 62.122,-35.739 85.516,-61.732c22.873,-25.342 39.248,-53.934 48.865,-84.865c4.874,-15.596 7.954,-31.451 9.189,-47.307c1.208,-15.595 0.702,-31.321 -1.521,-47.046c-4.34,-30.541 -14.945,-59.263 -31.191,-85.255c-14.815,-24.043 -34.05,-44.967 -56.923,-62.642l0.052,-0.039l-230.034,-176.749c-0.208,-0.156 -0.377,-0.325 -0.598,-0.468c-15.075,-11.593 -40.548,-11.554 -57.053,0.065c-16.765,11.748 -18.715,31.191 -3.769,43.407l-0.065,0.065l96.042,78.108l-292.416,0.312l-0.389,-0c-24.173,0.026 -47.437,15.855 -51.985,35.999c-4.731,20.404 11.696,37.429 36.909,37.429l-0.039,0.091l148.157,-0.286l-265.123,202.742c-0.338,0.247 -0.702,0.507 -1.014,0.754c-24.953,19.104 -33.01,50.945 -17.285,70.959c15.985,20.404 49.906,20.534 75.118,0.117l144.259,-118.266c-0,0 -2.106,15.986 -1.937,25.473l0.442,0.559Zm371.693,53.414c-29.762,30.282 -71.48,47.567 -116.447,47.567c-45.097,0.078 -86.814,-16.895 -116.576,-47.177c-14.556,-14.815 -25.213,-31.711 -31.841,-49.775c-6.459,-17.805 -8.967,-36.65 -7.304,-55.624c1.573,-18.585 7.109,-36.39 15.986,-52.375c8.681,-15.726 20.664,-30.021 35.35,-42.108c28.981,-23.523 65.761,-36.389 104.23,-36.389c38.598,-0.052 75.378,12.593 104.359,36.129c14.686,12.009 26.643,26.253 35.35,41.978c8.877,15.985 14.426,33.66 15.986,52.375c1.637,18.974 -0.871,37.819 -7.33,55.624c-6.602,18.195 -17.285,35.09 -31.841,49.905l0.078,-0.13Z" style="fill:#ea7600;fill-rule:nonzero;"/></g></g></svg>