<?xml version="1.0" encoding="UTF-8" standalone="no"?><!DOCTYPE svg PUBLIC "-//W3C//DTD SVG 1.1//EN" "http://www.w3.org/Graphics/SVG/1.1/DTD/svg11.dtd"><svg width="100%" height="100%" viewBox="0 0 2356 3325" version="1.1" xmlns="http://www.w3.org/2000/svg" xmlns:xlink="http://www.w3.org/1999/xlink" xml:space="preserve" xmlns:serif="http://www.serif.com/" style="fill-rule:evenodd;clip-rule:evenodd;stroke-linejoin:round;stroke-miterlimit:2;"><path d="M1176.35,3324.91l-961.976,-267.054l-214.377,-2404.43l2355.59,-0l-214.598,2404.06l-964.635,267.424Z" style="fill:#264de4;fill-rule:nonzero;"/><path d="M1957.27,2904.4l183.379,-2054.39l-962.853,0l0,2270.48l779.474,-216.095Z" style="fill:#2965f1;fill-rule:nonzero;"/><path d="M491.45,1741.79l26.426,294.894l659.917,0l0,-294.894l-686.343,0Zm-53.112,-596.869l26.805,294.893l712.65,0l0,-294.893l-739.455,-0Zm739.455,1362.74l-1.293,0.342l-328.421,-88.68l-20.997,-235.189l-296.029,-0l41.311,463.028l604.072,167.683l1.357,-0.37l0,-306.814Z" style="fill:#ebebeb;fill-rule:nonzero;"/><path d="M554.377,0l357.156,0l-0,149.363l-207.793,-0l-0,149.363l207.811,-0l0,149.353l-357.174,0l-0,-448.079Zm428.587,0l357.175,0l-0,129.88l-207.803,-0l0,25.974l207.803,0l-0,298.726l-357.157,-0l0,-136.39l207.803,0l-0,-25.974l-207.821,0l-0,-292.216Zm428.615,0l357.165,0l0,129.88l-207.802,-0l-0,25.974l207.802,0l0,298.726l-357.165,-0l-0,-136.39l207.802,0l0,-25.974l-207.793,0l0,-292.216l-0.009,0Z" style="fill:#fff;fill-rule:nonzero;"/><path d="M1862.25,1741.79l53.232,-596.869l-738.708,-0l0,294.893l415.531,0l-26.832,301.976l-388.699,0l0,294.894l363.131,0l-34.239,382.456l-328.901,88.772l0,306.796l604.552,-167.544l4.433,-49.824l69.307,-776.362l7.193,-79.188Z" style="fill:#fff;fill-rule:nonzero;"/></svg>