<svg class="click-cue" width="100%" height="100%" viewBox="0 0 195 90" version="1.1" xmlns="http://www.w3.org/2000/svg" xmlns:xlink="http://www.w3.org/1999/xlink" xml:space="preserve" xmlns:serif="http://www.serif.com/" style="fill-rule:evenodd;clip-rule:evenodd;stroke-linejoin:round;stroke-miterlimit:2;"><g><path d="M192.744,45.206c-29.479,-29.577 -62.463,-45.206 -95.397,-45.206l-0.095,0c-32.996,0.031 -65.949,15.663 -95.297,45.209l-1.955,1.97l1.944,1.976c26.492,26.918 59.801,40.372 93.688,40.372c33.847,0 68.276,-13.429 97.04,-40.288l2.119,-1.981l-2.047,-2.052Zm-104.194,38.438c-7.275,-1.642 -13.955,-5.298 -19.353,-10.708c-7.52,-7.537 -11.658,-17.553 -11.649,-28.204c0.009,-10.65 4.161,-20.66 11.693,-28.185c5.164,-5.16 11.493,-8.727 18.393,-10.457c3.206,-0.314 6.415,-0.482 9.623,-0.485l0.09,-0c3.295,-0 6.592,0.176 9.888,0.505c6.89,1.743 13.207,5.318 18.359,10.481c7.521,7.537 11.658,17.553 11.65,28.204c-0.009,10.65 -4.161,20.66 -11.694,28.185c-4.996,4.992 -11.085,8.483 -17.723,10.273c-6.434,0.637 -12.875,0.763 -19.277,0.391Zm-15.931,-74.956c-2.17,1.499 -4.226,3.195 -6.131,5.099c-8.269,8.262 -12.828,19.25 -12.837,30.942c-0.009,11.692 4.533,22.688 12.788,30.963c2.421,2.426 5.082,4.523 7.92,6.29c-24.077,-4.275 -47.085,-15.867 -66.459,-34.792c20.337,-19.915 42.327,-32.941 64.719,-38.502Zm49.248,72.366c2.284,-1.549 4.441,-3.321 6.437,-5.314c8.268,-8.261 12.827,-19.25 12.836,-30.942c0.01,-11.692 -4.532,-22.688 -12.788,-30.962c-1.896,-1.9 -3.94,-3.594 -6.099,-5.092c22.25,5.586 44.147,18.563 64.46,38.368c-19.694,17.736 -42.011,29.047 -64.846,33.942Z" style="fill-rule:nonzero;"/><path d="M97.396,26.17c-10.235,-0 -18.534,8.326 -18.534,18.594c-0,10.268 8.299,18.594 18.534,18.594c10.234,-0 18.534,-8.326 18.534,-18.594c-0,-10.268 -8.3,-18.594 -18.534,-18.594Z" style="fill-rule:nonzero;"/></g></svg>