<?xml version="1.0" encoding="UTF-8" standalone="no"?><!DOCTYPE svg PUBLIC "-//W3C//DTD SVG 1.1//EN" "http://www.w3.org/Graphics/SVG/1.1/DTD/svg11.dtd"><svg width="100%" height="100%" viewBox="0 0 1995 408" version="1.1" xmlns="http://www.w3.org/2000/svg" xmlns:xlink="http://www.w3.org/1999/xlink" xml:space="preserve" xmlns:serif="http://www.serif.com/" style="fill-rule:evenodd;clip-rule:evenodd;stroke-linejoin:round;stroke-miterlimit:2;"><g><path d="M783.054,175.563l-126.112,-0c-3.254,-0 -5.892,2.641 -5.892,5.895l0,61.659c0,3.254 2.638,5.904 5.892,5.904l49.196,-0l-0,76.604c-0,-0 -11.046,3.767 -41.588,3.767c-36.029,-0 -86.362,-13.167 -86.362,-123.85c-0,-110.704 52.412,-125.271 101.616,-125.271c42.596,-0 60.942,7.5 72.621,11.112c3.671,1.125 7.063,-2.529 7.063,-5.783l14.066,-59.575c0,-1.525 -0.516,-3.358 -2.25,-4.604c-4.741,-3.383 -33.671,-19.571 -106.754,-19.571c-84.192,0 -170.55,35.821 -170.55,208.008c-0,172.192 98.875,197.855 182.196,197.855c68.987,-0 110.837,-29.484 110.837,-29.484c1.725,-0.95 1.913,-3.362 1.913,-4.466l-0,-192.305c-0,-3.254 -2.638,-5.895 -5.892,-5.895Z" style="fill:#0e0d0d;fill-rule:nonzero;"/><path d="M1432.99,22.483c-0,-3.279 -2.601,-5.929 -5.859,-5.929l-71.008,0c-3.242,0 -5.879,2.65 -5.879,5.929c-0,0.017 0.021,137.225 0.021,137.225l-110.688,0l0,-137.225c0,-3.279 -2.608,-5.929 -5.858,-5.929l-71.005,0c-3.229,0 -5.866,2.65 -5.866,5.929l-0,371.575c-0,3.275 2.637,5.942 5.866,5.942l71.005,-0c3.25,-0 5.858,-2.667 5.858,-5.942l0,-158.937l110.688,-0c-0,-0 -0.196,158.925 -0.196,158.937c-0,3.275 2.633,5.942 5.883,5.942l71.175,-0c3.254,-0 5.854,-2.667 5.863,-5.942l-0,-371.575Z" style="fill:#0e0d0d;fill-rule:nonzero;"/><path d="M917.05,71.242c0,-25.567 -20.496,-46.23 -45.787,-46.23c-25.267,0 -45.784,20.663 -45.784,46.23c0,25.541 20.517,46.262 45.784,46.262c25.291,0 45.787,-20.721 45.787,-46.262Z" style="fill:#0e0d0d;fill-rule:nonzero;"/><path d="M911.975,390.462l0,-246.308c0,-3.254 -2.629,-5.916 -5.875,-5.916l-70.787,-0c-3.246,-0 -6.15,3.345 -6.15,6.604l-0,245.737c-0,7.221 4.5,9.367 10.32,9.367l63.775,-0c7,-0 8.717,-3.434 8.717,-9.484Z" style="fill:#0e0d0d;fill-rule:nonzero;"/><path d="M1702.85,138.796l-70.462,-0c-3.23,-0 -5.863,2.662 -5.863,5.941l-0,182.192c-0,0 -17.904,13.1 -43.312,13.1c-25.405,0 -32.146,-11.529 -32.146,-36.408l-0,-158.884c-0,-3.279 -2.625,-5.941 -5.863,-5.941l-71.517,-0c-3.224,-0 -5.87,2.662 -5.87,5.941l-0,170.913c-0,73.896 41.183,91.975 97.837,91.975c46.483,0 83.959,-25.679 83.959,-25.679c-0,-0 1.783,13.533 2.591,15.137c0.804,1.6 2.909,3.217 5.184,3.217l45.495,-0.2c3.225,0 5.871,-2.667 5.871,-5.933l-0.025,-249.43c0,-3.279 -2.629,-5.941 -5.879,-5.941Z" style="fill:#0e0d0d;fill-rule:nonzero;"/><path d="M1867.65,339.804c-24.442,-0.746 -41.021,-11.837 -41.021,-11.837l0,-117.667c0,0 16.354,-10.025 36.421,-11.817c25.375,-2.275 49.825,5.392 49.825,65.921c-0,63.834 -11.033,76.429 -45.225,75.4Zm27.792,-209.354c-40.021,0 -67.242,17.854 -67.242,17.854l0,-125.821c0,-3.279 -2.625,-5.929 -5.858,-5.929l-71.213,0c-3.237,0 -5.866,2.65 -5.866,5.929l-0,371.575c-0,3.275 2.629,5.942 5.875,5.942l49.408,-0c2.225,-0 3.908,-1.146 5.154,-3.154c1.229,-1.996 3,-17.133 3,-17.133c0,-0 29.117,27.595 84.238,27.595c64.716,0 101.829,-32.825 101.829,-147.358c-0,-114.533 -59.275,-129.5 -99.325,-129.5Z" style="fill:#0e0d0d;fill-rule:nonzero;"/><path d="M1116.06,138.204l-53.266,0c-0,0 -0.079,-70.354 -0.079,-70.371c-0,-2.662 -1.375,-3.995 -4.455,-3.995l-72.583,-0c-2.825,-0 -4.337,1.245 -4.337,3.954l-0,72.72c-0,0 -36.375,8.78 -38.838,9.488c-2.446,0.712 -4.25,2.971 -4.25,5.667l0,45.695c0,3.284 2.625,5.934 5.871,5.934l37.217,-0l-0,109.937c-0,81.65 57.275,89.671 95.92,89.671c17.663,0 38.788,-5.671 42.275,-6.958c2.109,-0.775 3.334,-2.958 3.334,-5.329l0.062,-50.267c0,-3.279 -2.771,-5.933 -5.891,-5.933c-3.109,-0 -11.042,1.262 -19.217,1.262c-26.167,0 -35.029,-12.162 -35.029,-27.908c-0,-15.738 -0.004,-104.475 -0.004,-104.475l53.27,-0c3.242,-0 5.875,-2.65 5.875,-5.934l0,-57.237c0,-3.279 -2.633,-5.921 -5.875,-5.921Z" style="fill:#0e0d0d;fill-rule:nonzero;"/><clipPath id="_clip1"><rect id="github-mark.svg" x="0" y="0" width="440" height="407.625"/></clipPath><g clip-path="url(#_clip1)"><path d="M219.344,0c-121.291,0 -219.344,93.414 -219.344,208.98c0,92.378 62.826,170.574 149.982,198.25c10.896,2.081 14.888,-4.496 14.888,-10.029c-0,-4.845 -0.359,-21.451 -0.359,-38.754c-61.017,12.458 -73.723,-24.912 -73.723,-24.912c-9.806,-24.22 -24.335,-30.445 -24.335,-30.445c-19.97,-12.802 1.455,-12.802 1.455,-12.802c22.153,1.385 33.777,21.452 33.777,21.452c19.607,31.828 51.202,22.835 63.912,17.298c1.814,-13.494 7.628,-22.835 13.802,-28.024c-48.665,-4.845 -99.867,-22.835 -99.867,-103.108c0,-22.835 8.71,-41.518 22.512,-56.048c-2.177,-5.189 -9.806,-26.644 2.182,-55.361c0,0 18.521,-5.537 60.28,21.451c17.879,-4.574 36.317,-6.901 54.838,-6.921c18.521,0 37.4,2.425 54.834,6.921c41.764,-26.988 60.285,-21.451 60.285,-21.451c11.988,28.717 4.355,50.172 2.177,55.361c14.166,14.53 22.517,33.213 22.517,56.048c-0,80.273 -51.202,97.915 -100.23,103.108c7.991,6.573 14.888,19.027 14.888,38.75c-0,28.024 -0.359,50.516 -0.359,57.433c-0,5.537 3.995,12.114 14.888,10.037c87.156,-27.684 149.981,-105.876 149.981,-198.254c0.359,-115.566 -98.052,-208.98 -218.981,-208.98Z" style="fill:#000307;"/></g></g></svg>