<?xml version="1.0" encoding="UTF-8" standalone="no"?><!DOCTYPE svg PUBLIC "-//W3C//DTD SVG 1.1//EN" "http://www.w3.org/Graphics/SVG/1.1/DTD/svg11.dtd"><svg width="100%" height="100%" viewBox="0 0 1512 2096" version="1.1" xmlns="http://www.w3.org/2000/svg" xmlns:xlink="http://www.w3.org/1999/xlink" xml:space="preserve" xmlns:serif="http://www.serif.com/" style="fill-rule:evenodd;clip-rule:evenodd;stroke-linejoin:round;stroke-miterlimit:2;"><path d="M139.375,0l95.833,0l0,95l88.334,0l-0,-95l95.833,0l0,287.5l-95.833,0l-0,-95.833l-87.5,-0l-0,95.833l-96.667,0m406.667,-191.667l-84.584,0l0,-95.833l265.417,0l0,95.833l-85,0l0,191.667l-95.833,0m222.916,-287.5l100.417,0l61.667,101.25l61.666,-101.25l100.417,0l-0,287.5l-95.833,0l-0,-142.5l-67.084,103.333l-67.083,-103.333l-0,142.5l-94.167,0m371.667,-287.5l95.833,0l0,192.5l135.834,0l-0,95l-231.667,0" style="fill:#fff;fill-rule:nonzero;"/><path d="M137.5,1925l-137.5,-1543.33l1511.67,-0l-137.5,1542.5l-619.584,171.666" style="fill:#e44d26;fill-rule:nonzero;"/><path d="M755.833,1964.58l0,-1456.25l617.917,0l-117.917,1316.67" style="fill:#f16529;fill-rule:nonzero;"/><path d="M280.833,697.083l475,0l0,189.167l-267.5,0l17.5,193.75l250,0l0,188.75l-423.333,0m8.333,95l190,0l13.334,151.25l211.666,56.667l0,197.5l-388.333,-108.334" style="fill:#ebebeb;fill-rule:nonzero;"/><path d="M1229.17,697.083l-474.167,0l0,189.167l456.667,0m-17.084,193.75l-439.583,0l0,189.167l233.333,-0l-22.083,245.833l-211.25,56.667l0,196.666l387.5,-107.5" style="fill:#fff;fill-rule:nonzero;"/></svg>