<?xml version="1.0" encoding="UTF-8" standalone="no"?><!DOCTYPE svg PUBLIC "-//W3C//DTD SVG 1.1//EN" "http://www.w3.org/Graphics/SVG/1.1/DTD/svg11.dtd"><svg width="100%" height="100%" viewBox="0 0 3334 3334" version="1.1" xmlns="http://www.w3.org/2000/svg" xmlns:xlink="http://www.w3.org/1999/xlink" xml:space="preserve" xmlns:serif="http://www.serif.com/" style="fill-rule:evenodd;clip-rule:evenodd;stroke-linejoin:round;stroke-miterlimit:2;"><clipPath id="_clip1"><rect id="javascript-logo-svgrepo-com.svg" x="0" y="0" width="3333.33" height="3333.33"/></clipPath><g clip-path="url(#_clip1)"><path d="M0,595.113c0,-328.672 266.441,-595.113 595.113,-595.113l2143.11,0c328.671,0 595.112,266.441 595.112,595.113l0,2143.11c0,328.671 -266.441,595.112 -595.112,595.112l-2143.11,0c-328.672,0 -595.113,-266.441 -595.113,-595.112l-0,-2143.11Z" style="fill:#f7df1e;fill-rule:nonzero;"/><path d="M876.458,2785.57l255.078,-154.375c49.219,87.253 93.985,161.081 201.368,161.081c102.929,-0 167.838,-40.261 167.838,-196.875l0,-1065.08l313.242,-0l0,1069.51c0,324.44 -190.182,472.122 -467.656,472.122c-250.586,0 -396.042,-129.779 -469.883,-286.406m1107.68,-33.542l255.052,-147.669c67.148,109.648 154.414,190.195 308.789,190.195c129.804,0 212.565,-64.896 212.565,-154.401c-0,-107.396 -85.026,-145.443 -228.229,-208.073l-78.295,-33.593c-226.002,-96.185 -375.911,-217.019 -375.911,-472.097c-0,-234.948 178.997,-413.958 458.698,-413.958c199.14,-0 342.344,69.375 445.26,250.612l-243.906,156.64c-53.711,-96.21 -111.862,-134.244 -201.367,-134.244c-91.745,-0 -149.922,58.177 -149.922,134.244c-0,93.972 58.177,132.032 192.422,190.209l78.307,33.554c266.276,114.128 416.185,230.469 416.185,492.24c0,281.953 -221.51,436.328 -519.102,436.328c-290.872,0 -478.828,-138.724 -570.559,-319.974" style="fill-rule:nonzero;"/></g></svg>