<?xml version="1.0" encoding="UTF-8" standalone="no"?><!DOCTYPE svg PUBLIC "-//W3C//DTD SVG 1.1//EN" "http://www.w3.org/Graphics/SVG/1.1/DTD/svg11.dtd"><svg width="100%" height="100%" viewBox="0 0 4088 3605" version="1.1" xmlns="http://www.w3.org/2000/svg" xmlns:xlink="http://www.w3.org/1999/xlink" xml:space="preserve" xmlns:serif="http://www.serif.com/" style="fill-rule:evenodd;clip-rule:evenodd;stroke-linecap:round;stroke-linejoin:round;"><g><path id="waves" d="M54.222,3550.06c117.034,0 292.586,-260.097 497.396,-297.254c117.034,0 204.81,260.098 497.396,297.254c204.81,0 292.585,-260.097 497.396,-260.097c204.81,-0 292.585,260.097 497.395,260.097c204.81,0 292.586,-260.097 497.396,-260.097c204.81,-0 292.586,260.097 497.396,260.097c204.81,0 292.586,-260.097 497.396,-260.097c204.81,-0 292.586,260.097 497.396,260.097" style="fill:none;fill-rule:nonzero;stroke:#fff;stroke-width:108.44px;"/><path id="hull" d="M454.479,3291.2l-134.004,-271.244l3452.51,-235.326c-271.519,261.336 -620.282,473.129 -973.14,646.528" style="fill:none;fill-rule:nonzero;stroke:#fff;stroke-width:108.44px;"/><path id="front_sail" d="M1695.04,493.291c587.512,190.119 1409.09,1108.51 1688.81,2095.64c-153.315,-63.785 -268.008,-128.81 -483.351,-70.597c-208.322,-801.968 -581.076,-1568.02 -1205.45,-2025.05Z" style="fill:none;fill-rule:nonzero;stroke:#fff;stroke-width:108.44px;"/><path id="rear_sail" d="M602.528,54.222c752.53,340.604 1784.77,1288.72 1974.37,2551.43c-867.81,-370.329 -1528.47,-172.779 -1988.41,127.572c701.62,-943.783 386.798,-2016.99 14.044,-2679Z" style="fill:none;fill-rule:nonzero;stroke:#fff;stroke-width:108.44px;"/></g></svg>