<?xml version="1.0" encoding="UTF-8" standalone="no"?><!DOCTYPE svg PUBLIC "-//W3C//DTD SVG 1.1//EN" "http://www.w3.org/Graphics/SVG/1.1/DTD/svg11.dtd"><svg width="100%" height="100%" viewBox="0 0 3125 3267" version="1.1" xmlns="http://www.w3.org/2000/svg" xmlns:xlink="http://www.w3.org/1999/xlink" xml:space="preserve" xmlns:serif="http://www.serif.com/" style="fill-rule:evenodd;clip-rule:evenodd;stroke-linejoin:round;stroke-miterlimit:2;"><g><path d="M1562.47,3266.67c-48.507,-0 -93.795,-11.997 -135.865,-33.004l-430.238,-237.073c-64.713,-33.029 -32.357,-45.026 -12.931,-51.024c87.329,-27.005 103.508,-33.029 194.084,-81.015c9.713,-6.025 22.672,-3.012 32.357,2.986l329.977,183.063c12.931,5.998 29.11,5.998 38.794,0l1290.77,-693.251c12.931,-5.999 19.425,-18.021 19.425,-33.004l0,-1383.49c0,-15.034 -6.494,-27.005 -19.425,-33.029l-1290.77,-690.239c-12.931,-6.025 -29.109,-6.025 -38.794,-0l-1290.77,690.239c-12.931,5.998 -19.425,21.007 -19.425,33.003l0,1383.49c0,12.023 6.494,27.005 19.425,33.03l352.622,189.061c190.865,90.026 310.551,-15.009 310.551,-120.043l0,-1365.5c0,-17.995 16.179,-36.015 38.823,-36.015l164.974,-0c19.426,-0 38.823,15.008 38.823,36.015l-0,1365.5c-0,237.074 -139.112,375.137 -381.731,375.137c-74.398,0 -132.618,0 -297.621,-75.043l-339.661,-180.051c-84.111,-45 -135.865,-129.053 -135.865,-219.079l-0,-1383.49c-0,-90.025 51.754,-174.078 135.865,-219.078l1290.74,-693.252c80.892,-42.013 190.894,-42.013 271.758,0l1290.74,693.252c84.111,45 135.893,129.053 135.893,219.078l-0,1383.49c-0,90.026 -51.782,174.079 -135.893,219.079l-1290.74,693.252c-42.07,18.02 -90.577,27.005 -135.865,27.005l-0.028,-0Zm397.909,-951.332c-566.102,-0 -682.57,-240.086 -682.57,-444.156c0,-18.02 16.178,-36.015 38.823,-36.015l168.221,-0c19.397,-0 35.576,11.996 35.576,30.017c25.891,159.044 100.289,237.073 443.197,237.073c271.73,0 388.225,-57.022 388.225,-192.073c0,-78.029 -32.385,-135.026 -456.157,-174.053c-352.621,-33.029 -572.597,-105.034 -572.597,-366.127c0,-243.097 220.004,-387.159 588.775,-387.159c414.06,0 617.885,132.065 643.776,420.137c0,9.036 -3.247,18.02 -9.712,27.031c-6.494,5.998 -16.179,11.996 -25.891,11.996l-168.222,0c-16.178,0 -32.357,-11.996 -35.575,-27.005c-38.823,-165.042 -139.112,-219.079 -404.376,-219.079c-297.62,0 -333.224,96.05 -333.224,168.055c0,87.04 42.07,114.045 443.198,162.057c397.91,48.037 585.556,117.056 585.556,375.136c-3.247,264.105 -236.154,414.165 -647.023,414.165Z" style="fill:#539e43;fill-rule:nonzero;"/></g></svg>