<?xml version="1.0" encoding="UTF-8" standalone="no"?><!DOCTYPE svg PUBLIC "-//W3C//DTD SVG 1.1//EN" "http://www.w3.org/Graphics/SVG/1.1/DTD/svg11.dtd"><svg width="100%" height="100%" viewBox="0 0 1311 1467" version="1.1" xmlns="http://www.w3.org/2000/svg" xmlns:xlink="http://www.w3.org/1999/xlink" xml:space="preserve" xmlns:serif="http://www.serif.com/" style="fill-rule:evenodd;clip-rule:evenodd;stroke-linejoin:round;stroke-miterlimit:2;"><path d="M178.29,0l433.498,384.791l0,-383.903l84.386,-0l-0,385.625l435.44,-386.513l-0,438.719l178.776,-0l0,632.811l-178.227,-0l-0,390.658l-435.989,-369.034l-0,373.271l-84.386,0l0,-367.186l-433.006,367.428l-0,-395.137l-178.782,-0l0,-632.811l178.29,-0l0,-438.719Zm369.882,519.024l-463.787,-0l-0,472.201l94.291,0l-0,-148.95l369.496,-323.251Zm-285.01,358.883l0,409.566l348.626,-295.825l0,-418.808l-348.626,305.067Zm435.44,109.828l-0,-415.289l348.727,305.085l0,193.999l0.448,-0l0,211.762l-349.175,-295.557Zm433.561,3.49l93.842,0l0,-472.201l-460.332,-0l366.49,319.905l-0,152.296Zm-84.935,-552.506l0,-254.001l-286.156,254.001l286.156,-0Zm-498.401,-0l-286.152,-0l0,-254.001l286.152,254.001Z" style="fill:#fff;"/></svg>