<?xml version="1.0" encoding="UTF-8" standalone="no"?><!DOCTYPE svg PUBLIC "-//W3C//DTD SVG 1.1//EN" "http://www.w3.org/Graphics/SVG/1.1/DTD/svg11.dtd"><svg width="100%" height="100%" viewBox="0 0 1712 1712" version="1.1" xmlns="http://www.w3.org/2000/svg" xmlns:xlink="http://www.w3.org/1999/xlink" xml:space="preserve" xmlns:serif="http://www.serif.com/" style="fill-rule:evenodd;clip-rule:evenodd;stroke-linejoin:round;stroke-miterlimit:2;"><g><path d="M855.983,0c472.746,0 855.98,383.242 855.98,855.983c-0,472.746 -383.234,855.98 -855.98,855.98c-472.746,-0 -855.983,-383.234 -855.983,-855.98c-0,-472.741 383.237,-855.983 855.983,-855.983Z" style="fill:#cd6699;"/><path d="M685.871,1141.11c12.454,46.066 11.087,89.025 -1.775,127.929c-1.429,4.321 -3.004,8.596 -4.713,12.821c-1.708,4.216 -3.558,8.387 -5.541,12.504c-9.921,20.583 -23.234,39.85 -39.538,57.633c-49.733,54.258 -119.221,74.775 -149.016,57.488c-32.175,-18.65 -16.059,-95.15 41.604,-156.1c62.033,-65.58 151.287,-107.742 151.287,-107.742l-0.137,-0.267c2.571,-1.383 5.183,-2.808 7.829,-4.266Zm707.042,-774.738c-38.763,-152.025 -290.838,-202.004 -529.413,-117.246c-141.979,50.442 -295.683,129.609 -406.2,232.979c-131.404,122.909 -152.358,229.884 -143.725,274.584c30.467,157.725 246.583,260.821 335.425,337.312l-0,0.463c-26.196,12.895 -217.933,109.929 -262.804,209.129c-47.346,104.654 7.533,179.754 43.871,189.862c112.579,31.321 228.104,-25.016 290.187,-117.62c59.913,-89.367 54.925,-204.767 28.888,-262.171c35.916,-9.475 77.787,-13.721 131,-7.504c150.154,17.537 179.616,111.295 173.983,150.525c-5.629,39.241 -37.125,60.816 -47.654,67.329c-10.534,6.516 -13.746,8.771 -12.859,13.612c1.275,7.042 6.15,6.779 15.13,5.258c12.358,-2.083 78.845,-31.916 81.687,-104.345c3.621,-91.959 -84.504,-194.825 -240.541,-192.138c-64.263,1.108 -104.671,7.221 -133.859,18.084c-2.158,-2.459 -4.354,-4.905 -6.625,-7.325c-96.467,-102.921 -274.796,-175.726 -267.233,-314.088c2.75,-50.3 20.233,-182.754 342.662,-343.417c264.125,-131.612 475.567,-95.395 512.109,-15.129c52.195,114.671 -113.005,327.804 -387.3,358.546c-104.504,11.717 -159.53,-28.787 -173.217,-43.871c-14.412,-15.879 -16.558,-16.596 -21.937,-13.616c-8.767,4.854 -3.213,18.874 -0,27.233c8.187,21.312 41.795,59.108 99.091,77.908c50.4,16.542 173.1,25.629 321.488,-31.766c166.187,-64.288 295.962,-243.113 257.846,-392.588Z" style="fill:#fff;fill-rule:nonzero;"/></g></svg>