<?xml version="1.0" encoding="UTF-8" standalone="no"?><!DOCTYPE svg PUBLIC "-//W3C//DTD SVG 1.1//EN" "http://www.w3.org/Graphics/SVG/1.1/DTD/svg11.dtd"><svg width="100%" height="100%" viewBox="0 0 3103 3046" version="1.1" xmlns="http://www.w3.org/2000/svg" xmlns:xlink="http://www.w3.org/1999/xlink" xml:space="preserve" xmlns:serif="http://www.serif.com/" style="fill-rule:evenodd;clip-rule:evenodd;stroke-linejoin:round;stroke-miterlimit:2;"><path d="M1941.21,931.331l93.164,-247.088l330.723,0l-244.057,1135.65c-14.985,71.804 -22.478,119.321 -22.478,142.551c-0,24.286 5.887,43.293 17.662,57.02c12.845,13.727 27.831,20.591 44.957,20.591c57.803,-0 132.197,-36.958 223.183,-110.873c92.057,-74.971 171.803,-176.34 239.24,-304.108c68.507,-128.824 102.76,-269.262 102.76,-421.317c0,-126.711 -24.62,-246.031 -73.859,-357.96c-48.169,-111.929 -118.282,-209.075 -210.338,-291.437c-92.056,-82.363 -206.056,-146.775 -342,-193.236c-134.873,-46.461 -287.943,-69.691 -459.211,-69.691c-174.479,-0 -334.507,22.703 -480.084,68.108c-145.578,44.349 -273.493,108.76 -383.747,193.235c-110.253,83.419 -202.309,186.9 -276.168,310.444c-65.296,107.705 -115.071,227.025 -149.324,357.96c-34.254,130.936 -51.381,264.511 -51.381,400.726c0,181.62 36.395,347.93 109.183,498.928c73.86,149.942 180.367,275.598 319.521,376.967c140.226,102.425 309.352,174.757 507.381,216.994c198.028,43.293 421.746,52.269 671.154,26.926c198.028,-23.23 365.549,-67.579 502.563,-133.047c138.085,-65.468 254.761,-157.334 350.028,-275.598l342,-0c-55.662,112.984 -128.45,213.826 -218.366,302.524c-88.845,88.698 -193.211,163.141 -313.098,223.33c-119.888,61.244 -254.226,107.704 -403.014,139.382c-148.789,31.678 -310.958,47.517 -486.507,47.517c-263.324,0 -500.422,-34.317 -711.296,-102.953c-210.873,-67.58 -388.563,-165.781 -533.07,-294.605c-143.436,-127.767 -252.084,-280.349 -325.943,-457.746c-73.859,-178.452 -110.789,-375.383 -110.789,-590.793c0,-224.914 38,-435.044 114,-630.391c76,-195.347 185.183,-364.824 327.549,-508.431c143.437,-144.663 317.916,-257.647 523.437,-338.954c206.591,-81.307 434.056,-121.96 682.394,-121.96c203.38,0 389.633,29.566 558.76,88.698c170.197,58.076 315.775,142.023 436.732,251.84c120.958,109.817 213.014,240.224 276.169,391.222c64.225,149.942 96.338,315.724 96.338,497.344c0,141.495 -25.69,280.35 -77.07,416.565c-51.381,135.159 -125.24,257.119 -221.578,365.88c-95.267,107.705 -207.662,193.235 -337.183,256.591c-129.521,62.3 -269.211,93.45 -419.07,93.45c-86.704,-0 -154.141,-14.255 -202.31,-42.765c-48.169,-29.566 -80.281,-76.027 -96.338,-139.383c-93.126,90.81 -200.169,148.358 -321.126,172.645c-120.958,23.23 -238.169,12.143 -351.634,-33.262c-113.465,-46.461 -205.521,-124.072 -276.169,-232.833c-69.577,-108.761 -104.366,-242.864 -104.366,-402.31c-0,-165.781 35.859,-328.922 107.577,-489.424c72.789,-160.501 175.55,-291.965 308.282,-394.39c133.803,-102.425 284.732,-153.638 452.789,-153.638c192.676,-0 374.112,142.551 464.028,285.101Zm-918.423,749.183c0,126.712 26.761,223.858 80.282,291.437c53.521,67.58 123.634,101.37 210.338,101.37c100.62,-0 188.929,-39.598 264.929,-118.792c77.071,-79.195 135.409,-178.981 175.014,-299.357c39.606,-121.432 59.409,-238.64 59.409,-351.625c-0,-55.964 -6.958,-106.121 -20.873,-150.47c-12.845,-45.405 -32.648,-85.003 -59.409,-118.792c-25.69,-33.79 -57.267,-59.133 -94.732,-76.028c-36.394,-17.95 -78.141,-26.926 -125.24,-26.926c-94.197,0 -179.295,36.43 -255.295,109.289c-74.93,71.803 -132.733,165.781 -173.409,281.934c-40.676,115.096 -61.014,234.416 -61.014,357.96Z" style="fill:#fff;fill-rule:nonzero;"/></svg>