
<svg version="1.0" xmlns="http://www.w3.org/2000/svg"
 width="300.000000pt" height="300.000000pt" viewBox="0 0 300.000000 300.000000"
 preserveAspectRatio="xMidYMid meet">
<metadata>
Created by potrace 1.10, written by Peter Selinger 2001-2011
</metadata>
<g transform="translate(0.000000,300.000000) scale(0.100000,-0.100000)"
fill="#ffffff" stroke="none">
<path d="M438 2985 c-200 -43 -381 -225 -424 -427 -20 -92 -20 -2024 0 -2116
44 -204 224 -384 428 -428 44 -9 147 -13 346 -14 l284 0 29 29 29 29 0 182 0
182 -82 -7 c-100 -8 -221 7 -282 36 -69 32 -111 81 -161 184 -45 94 -83 141
-169 208 -42 34 -45 53 -12 69 18 8 37 8 73 -1 75 -19 145 -72 203 -157 86
-124 156 -161 286 -151 94 7 141 27 149 64 11 48 28 87 56 129 l28 41 -77 13
c-396 64 -591 293 -595 700 -2 178 25 268 114 386 l30 41 -16 79 c-20 97 -11
201 27 298 11 28 13 28 72 23 66 -5 212 -63 297 -118 l49 -31 118 22 c162 32
362 32 524 1 l116 -23 67 41 c104 62 211 104 282 109 l62 4 16 -53 c32 -111
38 -183 20 -271 l-16 -81 31 -41 c88 -118 115 -208 113 -386 -2 -160 -22 -253
-83 -376 -84 -172 -265 -286 -515 -324 -73 -12 -86 -17 -69 -28 16 -11 50 -64
65 -102 9 -26 15 -120 19 -352 5 -313 5 -318 28 -340 22 -23 27 -23 295 -26
178 -2 296 0 342 8 214 36 405 219 451 432 20 92 20 2024 0 2116 -44 204 -224
384 -428 428 -89 19 -2033 18 -2120 -1z"/>
<path d="M532 858 c3 -7 13 -15 22 -16 12 -3 17 1 14 10 -3 7 -13 15 -22 16
-12 3 -17 -1 -14 -10z"/>
<path d="M592 804 c2 -11 11 -20 22 -22 13 -3 17 1 14 14 -2 11 -11 20 -22 22
-13 3 -17 -1 -14 -14z"/>
<path d="M650 732 c0 -22 13 -42 27 -42 21 0 12 44 -9 48 -10 2 -18 -1 -18 -6z"/>
<path d="M723 644 c-8 -21 26 -49 41 -34 7 7 7 16 0 27 -15 24 -33 27 -41 7z"/>
<path d="M822 573 c2 -11 14 -19 31 -21 23 -3 28 0 25 15 -2 11 -14 19 -31 21
-23 3 -28 0 -25 -15z"/>
<path d="M1067 583 c-11 -10 -8 -43 4 -43 6 0 19 5 30 11 16 8 18 13 8 25 -12
15 -31 18 -42 7z"/>
<path d="M944 559 c-3 -6 -2 -15 4 -21 15 -15 46 -5 50 15 3 12 -3 17 -22 17
-14 0 -28 -5 -32 -11z"/>
</g>
</svg>
