<svg width="100%" height="100%" viewBox="0 0 3125 3125" version="1.1" xmlns="http://www.w3.org/2000/svg" xmlns:xlink="http://www.w3.org/1999/xlink" xml:space="preserve" xmlns:serif="http://www.serif.com/" style="fill-rule:evenodd;clip-rule:evenodd;stroke-linejoin:round;stroke-miterlimit:2;"><path d="M2893.02,-0l-2665.31,-0c-124.896,-0 -226.25,100.417 -227.708,224.896l-0,2674.17c1.458,124.584 102.812,225.105 227.708,225.105l2667.92,-0c125,-0 226.563,-100.313 228.542,-224.896l-0,-2674.17c-1.979,-124.687 -103.542,-225.104 -228.646,-225.104l-3.021,0l0.521,-0Zm-1966.46,2662.29l-463.959,-0l0,-1490.73l463.959,0l-0,1490.73Zm-231.875,-1694.69c-148.438,0 -268.646,-120.312 -268.646,-268.646c-0,-148.333 120.312,-268.646 268.646,-268.646c148.333,0 268.645,120.209 268.645,268.542l0,0.417c0,148.229 -120.208,268.437 -268.437,268.437l-0.313,0l0.105,-0.104Zm1966.88,1694.69l-462.605,-0l0,-724.896c0,-172.917 -3.541,-395.313 -241.041,-395.313c-241.25,0 -278.021,188.125 -278.021,382.605l-0,737.708l-462.604,-0l-0,-1490.73l444.375,-0l-0,203.229l6.041,-0c86.25,-145.313 242.292,-241.146 420.73,-241.146c6.354,0 12.604,0.104 18.854,0.313l-0.938,-0c468.75,-0 555.417,308.541 555.417,710.104l-0,818.229l-0.208,-0.104Z" style="fill:#fff;fill-rule:nonzero;"/></svg>