<svg width="100%" height="100%" viewBox="0 0 300 300" version="1.1" xmlns="http://www.w3.org/2000/svg" xmlns:xlink="http://www.w3.org/1999/xlink" xml:space="preserve" xmlns:serif="http://www.serif.com/" style="fill-rule:evenodd;clip-rule:evenodd;stroke-linejoin:round;stroke-miterlimit:2;"><g><path d="M150,300c82.843,0 150,-67.157 150,-150c0,-82.843 -67.157,-150 -150,-150c-82.843,0 -150,67.157 -150,150c0,82.843 67.157,150 150,150Z" style="fill:#0072b1;"/><path d="M245.833,237.5l-37.669,0l0,-64.159c0,-17.591 -6.684,-27.421 -20.607,-27.421c-15.147,-0 -23.06,10.23 -23.06,27.421l0,64.159l-36.303,0l0,-122.222l36.303,-0l0,16.463c0,0 10.915,-20.197 36.852,-20.197c25.924,-0 44.484,15.831 44.484,48.572l0,77.384Zm-160.947,-138.226c-12.366,-0 -22.386,-10.099 -22.386,-22.554c0,-12.455 10.02,-22.553 22.386,-22.553c12.365,-0 22.379,10.098 22.379,22.553c0,12.455 -10.014,22.554 -22.379,22.554Zm-18.746,138.226l37.855,0l-0,-122.222l-37.855,-0l0,122.222Z" style="fill:#fff;"/></g></svg>